{"title":"Issaq - 2013 - 1CD - DVDScr - XVID","uid":8768406,"size":737238555,"categoryP":"video","categoryS":"movies","magnet":"?xt=urn:btih:977b0ec09c7b609d6890bb7f5a0ca8f5fa75bdd5&amp;dn=Issaq+-+2013+-+1CD+-+DVDScr+-+XVID+&amp;tr=udp%3A%2F%2Ftracker.openbittorrent.com%3A80&amp;tr=udp%3A%2F%2Fopen.demonii.com%3A1337&amp;tr=udp%3A%2F%2Ftracker.coppersurfer.tk%3A6969&amp;tr=udp%3A%2F%2Fexodus.desync.com%3A6969","seeders":1,"leechers":0,"uploader":"shailendramaxx","files":15,"time":1375389370,"description":"General\nComplete name                            : Issaq - 2013 DvD Scr \nFormat                                   : AVI\nFormat/Info                              : Audio Video Interleave\nFile size                                : 696 MiB\nDuration                                 : 2h 22mn\nOverall bit rate mode                    : Variable\nOverall bit rate                         : 684 Kbps\n\nVideo\nID                                       : 0\nFormat                                   : MPEG-4 Visual\nFormat profile                           : Advanced Simple@L5\nFormat settings, BVOP                    : 2\nFormat settings, QPel                    : Yes\nFormat settings, GMC                     : No warppoints\nFormat settings, Matrix                  : Default (H.263)\nCodec ID                                 : XVID\nCodec ID/Hint                            : XviD\nDuration                                 : 2h 22mn\nBit rate                                 : 596 Kbps\nWidth                                    : 608 pixels\nHeight                                   : 272 pixels\nDisplay aspect ratio                     : 2.25:1\nFrame rate                               : 25.000 fps\nColor space                              : YUV\nChroma subsampling                       : 4:2:0\nBit depth                                : 8 bits\nScan type                                : Progressive\nCompression mode                         : Lossy\nBits/(Pixel*Frame)                       : 0.144\nStream size                              : 606 MiB (87%)\nWriting library                          : XviD 1.2.1 (UTC 2008-12-04)\n\nAudio\nID                                       : 1\nFormat                                   : MPEG Audio\nFormat version                           : Version 1\nFormat profile                           : Layer 3\nMode                                     : Joint stereo\nMode extension                           : MS Stereo\nCodec ID                                 : 55\nCodec ID/Hint                            : MP3\nDuration                                 : 2h 22mn\nBit rate mode                            : Variable\nBit rate                                 : 80.0 Kbps\nChannel(s)                               : 2 channels\nSampling rate                            : 32.0 KHz\nCompression mode                         : Lossy\nStream size                              : 79.0 MiB (11%)\nAlignment                                : Aligned on interleaves\nInterleave, duration                     : 36 ms (0.90 video frame)\nInterleave, preload duration             : 192 ms\nTitle                                    : VTS_01_1 T80 2_0ch 192Kbps DELAY 0ms_new\nWriting library                          : LAME3.99r\nEncoding settings                        : -m j -V 4 -q 2 -lowpass 13.5 --abr 80\n\nSCREENS :-\n\n[URL=http://imageshack.com/i/np6mf5j/][IMG]http://imageshack.com/a/img853/1931/6mf5.jpg[/IMG][/URL]\n\n[URL=http://imageshack.com/i/n4b2ijj/][IMG]http://imageshack.com/a/img832/8349/b2ij.jpg[/IMG][/URL]\n [URL=http://imageshack.com/i/16n45lj/][IMG]http://imageshack.com/a/img42/3530/n45l.jpg[/IMG][/URL]\n\n[URL=http://imageshack.com/i/0o9ia0j/][IMG]http://imageshack.com/a/img24/7963/9ia0.jpg[/IMG][/URL]\n\n[URL=http://imageshack.com/i/5nvueej/][IMG]http://imageshack.com/a/img203/1732/vuee.jpg[/IMG][/URL]\n\n[URL=http://imageshack.com/i/0zium2j/][IMG]http://imageshack.com/a/img35/2086/ium2.jpg[/IMG][/URL]\n\n[URL=http://imageshack.com/i/j5v75jp/][IMG]http://imageshack.com/a/img689/4750/v75j.png[/IMG][/URL]\n\n[URL=http://imageshack.com/i/nfbqa8j/][IMG]http://imageshack.com/a/img843/8466/bqa8.jpg[/IMG][/URL]\n\n[URL=http://imageshack.com/i/nexr63j/][IMG]http://imageshack.com/a/img842/1565/xr63.jpg[/IMG][/URL]\n\n[URL=http://imageshack.com/i/15bsrjj/][IMG]http://imageshack.com/a/img41/7892/bsrj.jpg[/IMG][/URL]\n\n             ***** SAMPLE INCLUDED *****\n             \n                  LANGUAGE IS HINDI\n\nIF YOU LIKE THIS UPLOAD THEN PLEASE STOP A MOMENT TO SAY THANKS\n  \n********** PLEASE SEED AS LONG AS YOU CAN AFTER DOWNLOAD **********\n                         \n                         THANK YOU !!","torrent":{"xt":"urn:btih:977b0ec09c7b609d6890bb7f5a0ca8f5fa75bdd5","amp;dn":"Issaq+-+2013+-+1CD+-+DVDScr+-+XVID+","amp;tr":["udp%3A%2F%2Ftracker.openbittorrent.com%3A80","udp%3A%2F%2Fopen.demonii.com%3A1337","udp%3A%2F%2Ftracker.coppersurfer.tk%3A6969","udp%3A%2F%2Fexodus.desync.com%3A6969"],"infoHash":"977b0ec09c7b609d6890bb7f5a0ca8f5fa75bdd5","infoHashBuffer":{"type":"Buffer","data":[151,123,14,192,156,123,96,157,104,144,187,127,90,12,168,245,250,117,189,213]},"announce":[],"urlList":[]}}